<svg width="644" height="671" viewBox="0 0 644 671" fill="none" xmlns="http://www.w3.org/2000/svg">
<path d="M276.9 299.801C283.399 294.275 295.812 287.167 310.217 280.889C324.535 274.65 338.828 270.099 348.473 268.728L348.473 268.727C372.632 265.297 392.474 266.089 411.542 271.387C430.137 276.553 448.955 286.269 470.973 302.126L473.114 303.68C486.92 313.775 497.197 320.76 508.015 326.534C518.886 332.337 529.833 336.667 544.76 341.89L544.761 341.891C567.34 349.793 581.963 356.699 592.528 364.345C602.689 371.697 609.719 380.187 616.226 392.417L616.227 392.418C629.004 416.426 631.014 435.47 623.977 459.383C619.767 473.682 615.361 482.869 609.44 490.296C603.469 497.784 595.112 504.545 581.323 512.672L581.32 512.673C564.814 522.405 552.182 527.724 528.844 534.492L528.845 534.492C482.428 547.948 421.101 580.682 383.128 612.204C369.608 623.424 349.724 637.07 337.829 643.433C327.159 649.139 322.384 651.367 317.968 652.582C313.678 653.763 308.973 654.196 297.913 654.493C281.392 654.937 267.8 652.26 255.964 646.663C244.107 641.055 233.115 632.092 222.418 618.686C204.583 596.336 200.168 569.701 213.213 521.997L213.214 521.996C220.746 494.447 222.149 479.473 221.041 444.261C219.963 409.937 223.887 382.582 232.859 359.648C241.767 336.88 255.998 317.577 276.899 299.801L276.9 299.801ZM482.853 112.541C490.419 102.295 505.878 97.0952 529.015 102.673C551.731 108.15 578.104 123.575 600.385 148.09C625.932 176.199 630.115 215.233 618.92 246.296C607.734 277.336 583.095 296.685 552.659 292.628L552.658 292.627L551.923 292.525C520.838 287.979 489.662 257.84 478.991 215.192L478.99 215.191C466.246 164.267 470.136 129.763 482.852 112.543L482.853 112.541ZM45.2927 342.298C47.0787 341.428 49.7988 340.656 57.1261 340.191L57.127 340.191C61.8875 339.889 69.6854 341.042 78.7148 343.969C87.5514 346.833 96.084 350.917 102.25 355.25C121.247 368.605 147.057 394.991 157.316 411.133L157.316 411.134C173.942 437.288 178.142 463.507 173.372 484.069C168.696 504.228 155.28 519.989 133.612 526.855L133.612 526.855C113.172 533.331 88.8336 529.563 67.3379 517.496C45.8762 505.448 29.0694 486.125 22.7527 464.115C16.2059 441.303 14.5599 417.978 17.2093 397.599C19.8856 377.013 26.7539 360.702 35.9503 350.575L35.9512 350.574C41.0663 344.942 43.4597 343.191 45.2927 342.298ZM238.533 38.4202C246.736 24.7378 264.872 15.8068 290.711 16.0031C316.167 16.1966 346.153 25.4946 372.557 44.3947L372.557 44.3955C398.385 62.8878 411.645 80.22 418.352 101.065L418.353 101.067C428.589 132.871 425.262 162.932 413.444 184.837C401.743 206.525 381.71 220.525 356.423 221.763C310.213 224.02 260.787 183.593 238.783 112.89C227.493 76.6077 229.261 53.8871 238.534 38.4211L238.533 38.4202ZM86.0524 122.482C98.0294 105.585 111.444 97.8435 124.412 96.3888C137.522 94.9183 153.268 99.5276 170.4 113.549C182.211 123.216 196.052 140.079 207.854 158.815C219.729 177.666 228.264 196.388 230.892 209.203L230.893 209.205C241.558 261.196 225.91 298.664 195.765 314.882C173.882 326.655 146.519 325.272 121.466 312.52C96.4669 299.795 75.3743 276.437 66.7866 247.146C55.2293 207.72 63.7933 153.88 86.0515 122.483L86.0524 122.482Z" stroke="url(#paint0_linear_2067_67)" stroke-opacity="0.3" stroke-width="32"/>
<defs>
<linearGradient id="paint0_linear_2067_67" x1="174.37" y1="48.1316" x2="465.654" y2="593.274" gradientUnits="userSpaceOnUse">
<stop stop-color="#82A81D"/>
<stop offset="1" stop-color="#C3FF00"/>
</linearGradient>
</defs>
</svg>
