<svg width="100%" height="100%" viewBox="0 0 113 73" fill="none" xmlns="http://www.w3.org/2000/svg">
<path fill-rule="evenodd" clip-rule="evenodd" d="M70.8656 67.8825C71.4204 66.3671 68.8995 65.5263 70.3466 64.1348C71.1823 63.7487 71.5474 64.5345 71.7294 64.4188C71.8263 64.3202 73.0557 63.2992 73.3131 64.9764C73.3247 66.1315 72.406 67.226 70.8656 67.8825ZM68.012 70.945C64.9041 69.7369 65.7443 64.4812 66.6117 60.8855C58.7708 57.0695 56.223 56.1825 54.6288 52.4107L66.9799 58.7654C67.4907 54.0582 73.2765 52.7265 77.6294 51.1921C79.5961 50.499 80.4854 50.6391 81.3689 48.7013C82.3829 46.477 81.9896 46.1759 80.8909 44.8153C76.982 39.9729 81.8802 42.797 72.2297 36.9429L71.697 30.9244C69.776 30.9334 68.0823 35.7121 67.5006 37.2933C67.0108 38.6253 65.1827 38.871 64.1858 39.5241C56.1442 44.792 44.3815 65.1879 31.5188 65.0629L29.3914 65.0799C47.1629 58.4386 55.685 41.4208 64.1192 37.5175C66.7273 36.3088 65.5651 36.2847 66.794 33.8475C67.612 31.6795 69.7581 29.231 72.8822 28.831C73.8809 36.1883 73.2017 35.3036 76.5035 37.3202C79.7622 39.2038 80.3869 40.9695 81.3742 42.6811C87.0418 41.5172 92.6337 40.8839 94.4181 38.3103C95.5537 37.0637 96.4869 35.8422 97.4438 34.284C94.0443 33.3097 93.8756 31.5639 95.2093 28.9707C91.0486 26.2586 86.0024 27.7419 83.2879 23.6311C80.6746 19.8177 78.8147 18.1257 75.7197 17.4244C72.4017 16.8132 72.3431 15.3392 72.1801 14.3451L71.6613 8.48452C65.9135 9.11632 66.7568 16.542 64.1013 18.63C60.7151 20.5261 58.8365 23.4015 56.2471 27.9576C48.2075 42.1079 30.9207 62.4337 15.3976 62.2827L12.2939 62.3076C21.7821 58.7617 30.7614 53.3507 37.3168 47.4838C50.6353 35.5644 54.1055 22.4216 61.5465 17.3104C64.6617 12.4278 64.1512 6.09832 73.7048 4.87512C74.4826 10.6056 74.6213 12.8785 75.1179 14.5801C79.2701 15.3163 82.7701 17.7966 85.618 22.2835C87.142 24.6831 87.4435 23.8698 90.6138 24.6309C96.5699 26.0601 103.49 28.0489 99.9349 34.9672C97.8971 37.5237 95.7133 41.7627 92.9458 42.6346C90.6435 43.3597 86.9168 43.9638 83.1348 44.9114C84.2134 45.997 83.9543 48.5644 83.0997 50.139C82.0645 52.0459 80.72 51.8724 78.7015 52.9357C75.1601 54.2286 70.4501 55.4716 69.2896 58.5361L69.3429 58.5281C69.2712 58.8971 69.1963 59.252 69.1209 59.6038C70.9201 60.6345 71.4054 61.7655 71.8915 64.1429L68.6543 61.9631C68.5214 62.7846 68.4142 63.7016 68.3607 64.8179C67.8076 76.3316 94.0627 57.6445 112.523 72.4986C93.0439 61.7547 78.2147 74.9113 68.012 70.945Z" fill="#4C4C4C"/>
<path d="M30.0286 0C34.4905 0 38.6968 0.976895 42.5038 2.7291C42.5038 7.6605 42.5038 12.5181 42.5038 17.4416C47.427 17.4416 52.161 17.4416 57.0922 17.4416C57.3588 17.9134 57.6599 18.5521 57.8425 19.0735C45.8848 28.6417 46.3569 43.2091 17.4522 57.798L17.4992 42.5191C12.5682 42.5191 7.637 42.5191 2.7138 42.5191C0.961502 38.7126 0 34.4521 0 29.9899C0 25.5281 0.977002 21.2332 2.7292 17.4262C7.6604 17.4262 12.5836 17.4262 17.5148 17.4262C17.5148 12.5028 17.5148 7.6373 17.5148 2.7139C21.3216 0.961598 25.5667 0 30.0286 0Z" fill="url(#paint0_linear_34_399)"/>
<path d="M30.0286 0C34.4905 0 38.6968 0.976895 42.5038 2.7291C42.5038 7.6605 42.5038 12.5181 42.5038 17.4416C47.427 17.4416 52.161 17.4416 57.0922 17.4416C57.3588 17.9134 57.6599 18.5521 57.8425 19.0735C45.8848 28.6417 46.3569 43.2091 17.4522 57.798L17.4992 42.5191C12.5682 42.5191 7.637 42.5191 2.7138 42.5191C0.961502 38.7126 0 34.4521 0 29.9899C0 25.5281 0.977002 21.2332 2.7292 17.4262C7.6604 17.4262 12.5836 17.4262 17.5148 17.4262C17.5148 12.5028 17.5148 7.6373 17.5148 2.7139C21.3216 0.961598 25.5667 0 30.0286 0Z" fill="url(#paint1_linear_34_399)"/>
<defs>
<linearGradient id="paint0_linear_34_399" x1="3.44768e-06" y1="-3.80019e-07" x2="3.44768e-06" y2="57.798" gradientUnits="userSpaceOnUse">
<stop stop-color="#82A81D"/>
<stop offset="1" stop-color="white"/>
</linearGradient>
<linearGradient id="paint1_linear_34_399" x1="3.44768e-06" y1="-3.80019e-07" x2="3.44768e-06" y2="57.798" gradientUnits="userSpaceOnUse">
<stop stop-color="#82A81D"/>
<stop offset="1" stop-color="white"/>
</linearGradient>
</defs>
</svg>
