<svg width="100%" height="100%" viewBox="0 0 177 43" fill="none" xmlns="http://www.w3.org/2000/svg">
<path fill-rule="evenodd" clip-rule="evenodd" d="M62.5166 16.9027C62.628 16.911 62.7751 16.9215 62.958 16.9342C63.1428 16.9446 63.3447 16.9552 63.5673 16.9637C63.788 16.972 64.0149 16.9783 64.2441 16.9783C64.4457 16.9783 64.6642 16.972 64.8975 16.9552C65.1329 16.9405 65.3702 16.911 65.61 16.867C65.8494 16.8228 66.0806 16.7598 66.3013 16.6778C66.5218 16.5938 66.7173 16.4866 66.8917 16.3541C67.0662 16.2218 67.2026 16.0579 67.3035 15.8646C67.4045 15.6713 67.457 15.4423 67.459 15.1753C67.4572 14.8811 67.3897 14.6311 67.2553 14.4209C67.1229 14.2129 66.94 14.0468 66.709 13.9228C66.4757 13.7988 66.2088 13.717 65.9083 13.675V13.6496C66.1414 13.5993 66.3558 13.5132 66.5472 13.3913C66.7383 13.2693 66.8917 13.1138 67.0051 12.9248C67.1209 12.7356 67.1797 12.5149 67.1817 12.2628C67.1799 11.9938 67.1165 11.7689 66.9968 11.5862C66.8791 11.4034 66.7195 11.2562 66.5218 11.1427C66.3223 11.0294 66.1038 10.9452 65.8641 10.8864C65.6246 10.8275 65.3829 10.7877 65.1393 10.7667C64.8954 10.7457 64.6684 10.735 64.4584 10.7372C64.2209 10.7372 63.9813 10.7435 63.7397 10.7562C63.498 10.7687 63.271 10.7856 63.0588 10.8065C62.8466 10.8275 62.6658 10.8507 62.5166 10.8759V16.9027ZM63.5883 11.5568C63.6704 11.5484 63.7543 11.5399 63.8383 11.5316C63.9225 11.5252 64.0129 11.5189 64.1115 11.5126C64.2082 11.5085 64.3217 11.5064 64.4457 11.5064C65.0004 11.5064 65.4125 11.5799 65.6813 11.7269C65.9525 11.8741 66.0869 12.0989 66.0848 12.4015C66.0824 12.5843 66.0343 12.7378 65.9398 12.8616C65.8453 12.9856 65.7191 13.0865 65.5595 13.1602C65.4019 13.2358 65.2232 13.2903 65.0257 13.324C64.8302 13.3577 64.6285 13.3723 64.4206 13.3723H63.5883V11.5568ZM63.5757 14.091H64.3827C64.6454 14.0886 64.8954 14.1037 65.1287 14.1352C65.3598 14.1646 65.5679 14.2192 65.7464 14.2949C65.9251 14.3725 66.0659 14.4819 66.1688 14.6227C66.2698 14.7634 66.3223 14.9442 66.3243 15.1627C66.3225 15.3414 66.2823 15.4926 66.2025 15.6166C66.1248 15.7406 66.0176 15.8436 65.8851 15.9213C65.7528 16.0011 65.6056 16.0643 65.4417 16.1063C65.2799 16.1503 65.1119 16.1798 64.9438 16.1986C64.7735 16.2155 64.6117 16.2218 64.4584 16.2218C64.3469 16.2218 64.2419 16.2201 64.1474 16.2177C64.0527 16.2153 63.9604 16.2113 63.87 16.205C63.7775 16.1987 63.6787 16.1925 63.5757 16.184V14.091ZM73.7631 14.0532C73.7758 13.9902 73.7863 13.9167 73.7927 13.8325C73.799 13.7485 73.801 13.6497 73.801 13.5364C73.8033 13.3093 73.78 13.0655 73.7316 12.8071C73.6833 12.5486 73.6034 12.2943 73.49 12.0443C73.3786 11.7921 73.2253 11.5652 73.0341 11.3593C72.8408 11.1532 72.5991 10.9872 72.3112 10.8634C72.0232 10.7414 71.6787 10.6762 71.2794 10.6742C70.8338 10.676 70.4347 10.7604 70.0816 10.9284C69.7287 11.0944 69.4301 11.3256 69.1823 11.6219C68.9343 11.9203 68.7451 12.2669 68.6149 12.6641C68.4846 13.0593 68.4194 13.49 68.4174 13.9523C68.4191 14.4147 68.4868 14.8349 68.6211 15.2111C68.7578 15.5893 68.9553 15.9149 69.2138 16.1861C69.4723 16.4593 69.7874 16.6695 70.1573 16.8165C70.5271 16.9657 70.9473 17.0392 71.418 17.0414C71.7417 17.039 72.0337 17.0182 72.2922 16.9783C72.5508 16.9383 72.7776 16.89 72.9731 16.8312C73.1684 16.7703 73.3303 16.7115 73.4606 16.6505L73.2589 15.8561C73.1265 15.9149 72.9794 15.9696 72.8176 16.016C72.6579 16.0643 72.4751 16.1019 72.2712 16.1293C72.0674 16.1566 71.8321 16.1715 71.5694 16.1715C71.2879 16.1715 71.0209 16.1314 70.773 16.0516C70.5229 15.9718 70.3043 15.8456 70.111 15.6755C69.9198 15.5052 69.7685 15.2846 69.6571 15.0177C69.5436 14.7487 69.4848 14.4272 69.4765 14.0532H73.7631ZM69.4889 13.2588C69.5101 13.0635 69.5584 12.8616 69.6319 12.6537C69.7076 12.4478 69.8126 12.2545 69.9472 12.0758C70.0836 11.8951 70.254 11.7501 70.4598 11.6407C70.6637 11.5294 70.9075 11.4706 71.1912 11.4686C71.4391 11.4703 71.6534 11.5106 71.8321 11.5882C72.0107 11.6661 72.1578 11.7689 72.2754 11.8993C72.3931 12.0274 72.4856 12.1724 72.5528 12.328C72.6201 12.4856 72.6684 12.6453 72.6936 12.8071C72.7209 12.9668 72.7336 13.1182 72.7293 13.2588H69.4889ZM74.381 10.8002V11.6702H76.2849V16.9027H77.3945V11.6702H79.2982V10.8002H74.381ZM85.262 14.0532C85.2747 13.9902 85.2852 13.9167 85.2915 13.8325C85.2979 13.7485 85.2999 13.6497 85.2999 13.5364C85.3022 13.3093 85.2788 13.0655 85.2305 12.8071C85.1821 12.5486 85.1024 12.2943 84.9888 12.0443C84.8775 11.7921 84.7242 11.5652 84.5329 11.3593C84.3396 11.1532 84.0979 10.9872 83.8101 10.8634C83.5221 10.7414 83.1776 10.6762 82.7782 10.6742C82.3327 10.676 81.9335 10.7604 81.5805 10.9284C81.2275 11.0944 80.929 11.3256 80.6811 11.6219C80.4331 11.9203 80.2439 12.2669 80.1138 12.6641C79.9834 13.0593 79.9183 13.49 79.9163 13.9523C79.918 14.4147 79.9856 14.8349 80.12 15.2111C80.2566 15.5893 80.4541 15.9149 80.7127 16.1861C80.9711 16.4593 81.2863 16.6695 81.6561 16.8165C82.026 16.9657 82.4462 17.0392 82.9169 17.0414C83.2406 17.039 83.5326 17.0182 83.7911 16.9783C84.0496 16.9383 84.2765 16.89 84.472 16.8312C84.6673 16.7703 84.8292 16.7115 84.9595 16.6505L84.7578 15.8561C84.6253 15.9149 84.4783 15.9696 84.3164 16.016C84.1568 16.0643 83.9739 16.1019 83.7701 16.1293C83.5662 16.1566 83.3309 16.1715 83.0683 16.1715C82.7867 16.1715 82.5197 16.1314 82.2719 16.0516C82.0217 15.9718 81.8032 15.8456 81.6098 15.6755C81.4187 15.5052 81.2673 15.2846 81.156 15.0177C81.0425 14.7487 80.9837 14.4272 80.9753 14.0532H85.262ZM80.9878 13.2588C81.009 13.0635 81.0573 12.8616 81.1308 12.6537C81.2065 12.4478 81.3115 12.2545 81.446 12.0758C81.5825 11.8951 81.7529 11.7501 81.9587 11.6407C82.1625 11.5294 82.4064 11.4706 82.6901 11.4686C82.9379 11.4703 83.1522 11.5106 83.3309 11.5882C83.5096 11.6661 83.6566 11.7689 83.7743 11.8993C83.8919 12.0274 83.9845 12.1724 84.0516 12.328C84.1189 12.4856 84.1673 12.6453 84.1924 12.8071C84.2198 12.9668 84.2325 13.1182 84.2281 13.2588H80.9878ZM86.6742 19.3991H87.7711V16.0831H87.7965C87.9205 16.2848 88.0758 16.4571 88.2672 16.6C88.4561 16.743 88.6705 16.8521 88.9102 16.9278C89.1497 17.0035 89.404 17.0414 89.675 17.0414C90.0385 17.0414 90.3852 16.9741 90.7172 16.8375C91.0493 16.701 91.3456 16.4971 91.6083 16.2239C91.8688 15.9527 92.0768 15.6102 92.2281 15.2006C92.3795 14.7907 92.4572 14.3117 92.4615 13.7632C92.4592 13.3008 92.3941 12.8806 92.264 12.5044C92.1357 12.1263 91.955 11.8006 91.7218 11.5274C91.4865 11.2562 91.2133 11.046 90.8981 10.8969C90.5828 10.7499 90.2382 10.6762 89.8642 10.6742C89.3662 10.676 88.9353 10.7792 88.5718 10.9811C88.2083 11.1849 87.9161 11.4727 87.6954 11.8468H87.6703L87.6073 10.8002H86.6239C86.6364 11.0883 86.6491 11.3949 86.6596 11.7206C86.6679 12.0464 86.6742 12.4036 86.6742 12.7923V19.3991ZM87.7711 13.3597C87.7711 13.2903 87.7796 13.2168 87.7943 13.1392C87.8089 13.0635 87.828 12.99 87.8468 12.9185C87.9161 12.639 88.0359 12.3995 88.2041 12.1956C88.3702 11.9918 88.5677 11.8362 88.7966 11.7249C89.0257 11.6136 89.2695 11.5589 89.5237 11.5568C89.8179 11.5591 90.0764 11.6197 90.3034 11.7396C90.5283 11.8573 90.7172 12.0233 90.8708 12.2313C91.0263 12.4393 91.1418 12.6789 91.2216 12.95C91.2995 13.221 91.3393 13.509 91.3393 13.8137C91.3393 14.2822 91.2658 14.694 91.1186 15.0471C90.9736 15.4003 90.7636 15.6735 90.4882 15.871C90.2129 16.0685 89.8789 16.1693 89.4859 16.1715C89.219 16.1691 88.9732 16.1146 88.7462 16.0054C88.5193 15.8961 88.3259 15.7448 88.1663 15.5514C88.0064 15.3561 87.891 15.1313 87.8216 14.8727C87.8026 14.8034 87.7901 14.7299 87.7816 14.6542C87.7755 14.5786 87.7711 14.5007 87.7711 14.4189V13.3597ZM93.8105 10.8002V16.9027H95.0966C95.311 16.5433 95.5295 16.1798 95.748 15.8099C95.9666 15.4401 96.181 15.0766 96.391 14.7214C96.6034 14.3664 96.8072 14.03 97.0006 13.7129C97.1202 13.509 97.2337 13.3113 97.3387 13.1202C97.4439 12.929 97.551 12.7293 97.6582 12.5171C97.7674 12.3069 97.8894 12.0716 98.0217 11.809H98.0469C98.0344 12.0548 98.0239 12.2796 98.0134 12.4813C98.0049 12.6831 97.9966 12.8764 97.9903 13.0635C97.9839 13.2505 97.9797 13.4439 97.9756 13.6455C97.9732 13.8472 97.9715 14.072 97.9715 14.318V16.9027H99.0307V10.8002H97.7319L95.8282 13.9523C95.7252 14.1267 95.6327 14.2886 95.5506 14.4399C95.4688 14.589 95.389 14.7341 95.3153 14.8769C95.2418 15.0199 95.1661 15.1691 95.0885 15.3224C95.0106 15.478 94.9244 15.6461 94.8321 15.8309L94.7943 15.8183C94.8068 15.602 94.8173 15.3981 94.8278 15.2048C94.8363 15.0093 94.8446 14.8181 94.8509 14.6291C94.8573 14.4377 94.8615 14.2402 94.8656 14.0364C94.868 13.8325 94.8697 13.6098 94.8697 13.3723V10.8002H93.8105ZM100.796 10.8002V16.9027H101.905V14.1415H104.792V16.9027H105.902V10.8002H104.792V13.2588H101.905V10.8002H100.796ZM112.004 13.158C112.006 12.8512 111.973 12.5528 111.904 12.2586C111.834 11.9666 111.714 11.6996 111.544 11.4622C111.374 11.2247 111.137 11.0336 110.834 10.8927C110.531 10.7499 110.149 10.6784 109.684 10.6742C109.426 10.6742 109.176 10.6974 108.932 10.7414C108.688 10.7856 108.457 10.8465 108.243 10.9264C108.029 11.0062 107.837 11.0987 107.667 11.2037L107.919 11.9476C108.064 11.8509 108.222 11.7689 108.396 11.7018C108.571 11.6324 108.751 11.5819 108.943 11.5462C109.134 11.5106 109.327 11.4937 109.521 11.4937C109.768 11.4937 109.976 11.5231 110.145 11.5862C110.311 11.6493 110.447 11.7333 110.548 11.8384C110.651 11.9434 110.727 12.0589 110.779 12.1851C110.832 12.3091 110.865 12.4329 110.884 12.5569C110.901 12.6809 110.91 12.7923 110.908 12.8933V13.0193C110.12 13.0152 109.453 13.1013 108.909 13.2736C108.363 13.448 107.949 13.7043 107.665 14.0427C107.384 14.3811 107.241 14.7971 107.239 15.2887C107.239 15.5116 107.278 15.728 107.356 15.9359C107.434 16.142 107.552 16.3289 107.709 16.495C107.865 16.6632 108.058 16.7933 108.291 16.8922C108.525 16.9888 108.796 17.0392 109.104 17.0414C109.394 17.039 109.659 16.9951 109.899 16.9132C110.138 16.8292 110.348 16.7178 110.529 16.5811C110.71 16.4447 110.857 16.2953 110.971 16.1336H111.008L111.097 16.9027H112.093C112.061 16.6925 112.038 16.4635 112.025 16.2135C112.011 15.9655 112.004 15.7069 112.004 15.4401V13.158ZM110.933 14.8476C110.933 14.8979 110.929 14.9548 110.922 15.0136C110.914 15.0744 110.901 15.1376 110.882 15.2006C110.823 15.3749 110.727 15.5409 110.594 15.6944C110.462 15.85 110.294 15.9759 110.09 16.0726C109.888 16.1693 109.651 16.2198 109.382 16.2218C109.195 16.2218 109.023 16.1839 108.867 16.1104C108.712 16.0348 108.588 15.9193 108.493 15.7616C108.398 15.6061 108.35 15.4064 108.348 15.1627C108.35 14.9274 108.401 14.7256 108.501 14.5617C108.6 14.3979 108.737 14.2634 108.909 14.1604C109.081 14.0554 109.279 13.9755 109.499 13.9187C109.72 13.864 109.953 13.8262 110.199 13.8074C110.445 13.7884 110.689 13.7822 110.933 13.7884V14.8476ZM113.795 19.3991H114.892V16.0831H114.917C115.041 16.2848 115.196 16.4571 115.388 16.6C115.577 16.743 115.791 16.8521 116.031 16.9278C116.27 17.0035 116.524 17.0414 116.795 17.0414C117.159 17.0414 117.506 16.9741 117.838 16.8375C118.17 16.701 118.466 16.4971 118.729 16.2239C118.989 15.9527 119.197 15.6102 119.349 15.2006C119.5 14.7907 119.578 14.3117 119.582 13.7632C119.58 13.3008 119.515 12.8806 119.384 12.5044C119.256 12.1263 119.075 11.8006 118.842 11.5274C118.607 11.2562 118.334 11.046 118.018 10.8969C117.703 10.7499 117.359 10.6762 116.985 10.6742C116.487 10.676 116.056 10.7792 115.692 10.9811C115.329 11.1849 115.037 11.4727 114.816 11.8468H114.791L114.728 10.8002H113.744C113.757 11.0883 113.769 11.3949 113.78 11.7206C113.788 12.0464 113.795 12.4036 113.795 12.7923V19.3991ZM114.892 13.3597C114.892 13.2903 114.9 13.2168 114.915 13.1392C114.929 13.0635 114.948 12.99 114.967 12.9185C115.037 12.639 115.156 12.3995 115.325 12.1956C115.491 11.9918 115.688 11.8362 115.917 11.7249C116.146 11.6136 116.39 11.5589 116.644 11.5568C116.938 11.5591 117.197 11.6197 117.424 11.7396C117.649 11.8573 117.838 12.0233 117.991 12.2313C118.147 12.4393 118.262 12.6789 118.342 12.95C118.42 13.221 118.46 13.509 118.46 13.8137C118.46 14.2822 118.386 14.694 118.239 15.0471C118.094 15.4003 117.884 15.6735 117.609 15.871C117.333 16.0685 116.999 16.1693 116.606 16.1715C116.339 16.1691 116.094 16.1146 115.867 16.0054C115.64 15.8961 115.446 15.7448 115.287 15.5514C115.127 15.3561 115.011 15.1313 114.942 14.8727C114.923 14.8034 114.911 14.7299 114.902 14.6542C114.896 14.5786 114.892 14.5007 114.892 14.4189V13.3597ZM120.931 10.8002V16.9027H122.041V14.1415H124.928V16.9027H126.037V10.8002H124.928V13.2588H122.041V10.8002H120.931ZM127.815 10.8002V16.8775C128.05 16.9026 128.305 16.9236 128.582 16.9405C128.86 16.9573 129.149 16.9657 129.454 16.9657C129.725 16.968 130.009 16.9488 130.301 16.909C130.595 16.869 130.881 16.7976 131.158 16.6946C131.436 16.5917 131.688 16.4467 131.913 16.2596C132.11 16.0978 132.266 15.9024 132.382 15.6713C132.495 15.4423 132.554 15.1669 132.556 14.8476C132.554 14.5449 132.503 14.2802 132.407 14.0532C132.308 13.8242 132.173 13.6308 132.001 13.4711C131.829 13.3093 131.631 13.179 131.406 13.0803C131.182 12.9793 130.942 12.908 130.688 12.8616C130.431 12.8155 130.173 12.7923 129.908 12.7923C129.704 12.7923 129.519 12.8008 129.349 12.8155C129.181 12.8301 129.04 12.8492 128.925 12.868V10.8002H127.815ZM128.912 13.6624C129.026 13.6372 129.152 13.6182 129.288 13.6057C129.427 13.593 129.574 13.5867 129.732 13.5867C129.942 13.5843 130.148 13.6057 130.352 13.6496C130.553 13.6917 130.736 13.7632 130.902 13.8599C131.066 13.9587 131.198 14.091 131.295 14.257C131.394 14.423 131.444 14.6269 131.446 14.8727C131.445 15.1122 131.392 15.3141 131.291 15.4801C131.19 15.6461 131.055 15.7806 130.885 15.8814C130.715 15.9823 130.528 16.0579 130.318 16.1041C130.11 16.1503 129.898 16.1715 129.681 16.1715C129.532 16.1715 129.393 16.1674 129.267 16.1608C129.143 16.1524 129.023 16.1398 128.912 16.121V13.6624ZM133.325 10.8002V16.9027H134.422V10.8002H133.325ZM136.2 10.8002V16.9027H137.486C137.7 16.5433 137.919 16.1798 138.137 15.8099C138.356 15.4401 138.57 15.0766 138.78 14.7214C138.992 14.3664 139.196 14.03 139.39 13.7129C139.509 13.509 139.623 13.3113 139.728 13.1202C139.833 12.929 139.94 12.7293 140.047 12.5171C140.156 12.3069 140.279 12.0716 140.411 11.809H140.436C140.424 12.0548 140.413 12.2796 140.403 12.4813C140.394 12.6831 140.386 12.8764 140.379 13.0635C140.373 13.2505 140.369 13.4439 140.365 13.6455C140.362 13.8472 140.361 14.072 140.361 14.318V16.9027H141.42V10.8002H140.121L138.217 13.9523C138.114 14.1267 138.022 14.2886 137.94 14.4399C137.858 14.589 137.778 14.7341 137.704 14.8769C137.631 15.0199 137.555 15.1691 137.478 15.3224C137.4 15.478 137.314 15.6461 137.221 15.8309L137.183 15.8183C137.196 15.602 137.206 15.3981 137.217 15.2048C137.225 15.0093 137.234 14.8181 137.24 14.6291C137.246 14.4377 137.251 14.2402 137.255 14.0364C137.257 13.8325 137.259 13.6098 137.259 13.3723V10.8002H136.2ZM137.171 8.31641C137.185 8.60646 137.248 8.86694 137.358 9.10231C137.469 9.33763 137.637 9.52467 137.866 9.66549C138.093 9.80414 138.391 9.87564 138.759 9.87982C139.085 9.87982 139.369 9.81902 139.612 9.7013C139.854 9.58347 140.047 9.40695 140.188 9.17599C140.331 8.94261 140.413 8.65697 140.436 8.31641H139.642C139.621 8.49927 139.579 8.66109 139.511 8.80614C139.446 8.94897 139.354 9.06245 139.234 9.14647C139.114 9.2305 138.965 9.27265 138.784 9.27465C138.616 9.27289 138.475 9.2305 138.36 9.14647C138.244 9.06245 138.154 8.94897 138.091 8.80614C138.028 8.66109 137.99 8.49927 137.977 8.31641H137.171ZM145.858 10.8002V16.9027H150.523L150.573 18.8317H151.443L151.506 16.0831L150.876 16.0705V10.8002H149.779V16.0326H146.967V10.8002H145.858ZM157.735 14.0532C157.747 13.9902 157.758 13.9167 157.764 13.8325C157.77 13.7485 157.772 13.6497 157.772 13.5364C157.775 13.3093 157.751 13.0655 157.703 12.8071C157.655 12.5486 157.575 12.2943 157.461 12.0443C157.35 11.7921 157.197 11.5652 157.005 11.3593C156.812 11.1532 156.57 10.9872 156.283 10.8634C155.995 10.7414 155.65 10.6762 155.251 10.6742C154.805 10.676 154.406 10.7604 154.053 10.9284C153.7 11.0944 153.401 11.3256 153.154 11.6219C152.906 11.9203 152.716 12.2669 152.586 12.6641C152.456 13.0593 152.391 13.49 152.389 13.9523C152.391 14.4147 152.458 14.8349 152.592 15.2111C152.729 15.5893 152.927 15.9149 153.185 16.1861C153.444 16.4593 153.759 16.6695 154.129 16.8165C154.499 16.9657 154.919 17.0392 155.389 17.0414C155.713 17.039 156.005 17.0182 156.264 16.9783C156.522 16.9383 156.749 16.89 156.944 16.8312C157.14 16.7703 157.302 16.7115 157.432 16.6505L157.23 15.8561C157.098 15.9149 156.951 15.9696 156.789 16.016C156.629 16.0643 156.446 16.1019 156.243 16.1293C156.039 16.1566 155.803 16.1715 155.541 16.1715C155.259 16.1715 154.992 16.1314 154.744 16.0516C154.494 15.9718 154.276 15.8456 154.082 15.6755C153.891 15.5052 153.74 15.2846 153.628 15.0177C153.515 14.7487 153.456 14.4272 153.448 14.0532H157.735ZM153.46 13.2588C153.481 13.0635 153.53 12.8616 153.603 12.6537C153.679 12.4478 153.784 12.2545 153.918 12.0758C154.055 11.8951 154.225 11.7501 154.431 11.6407C154.635 11.5294 154.879 11.4706 155.163 11.4686C155.41 11.4703 155.625 11.5106 155.803 11.5882C155.982 11.6661 156.129 11.7689 156.247 11.8993C156.364 12.0274 156.457 12.1724 156.524 12.328C156.591 12.4856 156.64 12.6453 156.665 12.8071C156.692 12.9668 156.705 13.1182 156.701 13.2588H153.46ZM159.109 10.8002V16.9027H160.218V14.1415H163.106V16.9027H164.215V10.8002H163.106V13.2588H160.218V10.8002H159.109ZM165.236 10.8002V11.6702H167.14V16.9027H168.25V11.6702H170.154V10.8002H165.236ZM171.213 19.3991H172.31V16.0831H172.335C172.459 16.2848 172.614 16.4571 172.806 16.6C172.995 16.743 173.209 16.8521 173.449 16.9278C173.688 17.0035 173.943 17.0414 174.214 17.0414C174.577 17.0414 174.924 16.9741 175.256 16.8375C175.588 16.701 175.884 16.4971 176.147 16.2239C176.407 15.9527 176.616 15.6102 176.767 15.2006C176.918 14.7907 176.996 14.3117 177 13.7632C176.998 13.3008 176.933 12.8806 176.803 12.5044C176.674 12.1263 176.494 11.8006 176.26 11.5274C176.025 11.2562 175.752 11.046 175.437 10.8969C175.121 10.7499 174.777 10.6762 174.403 10.6742C173.905 10.676 173.474 10.7792 173.111 10.9811C172.747 11.1849 172.455 11.4727 172.234 11.8468H172.209L172.146 10.8002H171.163C171.175 11.0883 171.188 11.3949 171.198 11.7206C171.207 12.0464 171.213 12.4036 171.213 12.7923V19.3991ZM172.31 13.3597C172.31 13.2903 172.318 13.2168 172.333 13.1392C172.348 13.0635 172.367 12.99 172.386 12.9185C172.455 12.639 172.575 12.3995 172.743 12.1956C172.909 11.9918 173.106 11.8362 173.335 11.7249C173.564 11.6136 173.808 11.5589 174.062 11.5568C174.357 11.5591 174.615 11.6197 174.842 11.7396C175.067 11.8573 175.256 12.0233 175.409 12.2313C175.565 12.4393 175.68 12.6789 175.76 12.95C175.838 13.221 175.878 13.509 175.878 13.8137C175.878 14.2822 175.804 14.694 175.657 15.0471C175.512 15.4003 175.302 15.6735 175.027 15.871C174.752 16.0685 174.418 16.1693 174.025 16.1715C173.758 16.1691 173.512 16.1146 173.285 16.0054C173.058 15.8961 172.865 15.7448 172.705 15.5514C172.545 15.3561 172.43 15.1313 172.36 14.8727C172.341 14.8034 172.329 14.7299 172.32 14.6542C172.314 14.5786 172.31 14.5007 172.31 14.4189V13.3597Z" fill="#4C4C4C"/>
<path d="M71.7834 35.3201H68.5597V25.1441H65.1983V35.3201H61.9746V23.5569H71.7834V35.3201ZM82.7644 27.1371C82.7644 28.3598 82.3451 29.2534 81.506 29.8177C80.8165 30.2762 79.8913 30.5055 78.7306 30.5055H76.5584V35.3201H73.3348V23.5569H78.4547C79.6154 23.5569 80.5923 23.8333 81.3852 24.3858C82.3047 25.0325 82.7644 25.9495 82.7644 27.1371ZM79.5408 27.1548C79.5408 26.4611 79.3282 25.9319 78.903 25.5675C78.5351 25.25 78.041 25.0913 77.4205 25.0913H76.5584V28.9712H77.4031C78.0123 28.9712 78.5007 28.8477 78.8684 28.6008C79.3165 28.2951 79.5408 27.8131 79.5408 27.1548ZM94.0558 35.3201H90.8321V27.8248L86.057 35.3201H83.954V23.5569H87.1774V30.9111L91.8491 23.5569H94.0558V35.3201ZM106.985 35.3201H103.778V27.6838L100.675 35.3201H100.331L97.193 27.6484V35.3201H95.59V23.5569H98.762L101.33 29.8354L103.865 23.5569H106.985V35.3201ZM120.672 29.6765C120.672 31.4754 120.029 32.9334 118.742 34.0504C117.558 35.0733 116.127 35.5847 114.449 35.5847C112.794 35.5847 111.381 35.0849 110.208 34.0856C108.91 32.9803 108.26 31.5166 108.26 29.6942C108.26 27.8483 108.867 26.3229 110.079 25.1177C111.292 23.9126 112.748 23.3101 114.449 23.3101C116.161 23.3101 117.61 23.8803 118.793 25.0207C120.046 26.22 120.672 27.7719 120.672 29.6765ZM117.207 29.6765C117.207 27.9953 116.92 26.7021 116.345 25.7967C115.874 25.056 115.236 24.6856 114.432 24.6856C113.386 24.6856 112.633 25.2912 112.174 26.502C111.863 27.3251 111.708 28.3891 111.708 29.6942C111.708 30.8112 111.909 31.7753 112.311 32.5865C112.829 33.6329 113.576 34.1561 114.552 34.1561C115.506 34.1561 116.213 33.6271 116.673 32.5688C117.029 31.7576 117.207 30.7936 117.207 29.6765ZM131.343 27.1371C131.343 28.3598 130.923 29.2534 130.084 29.8177C129.395 30.2762 128.47 30.5055 127.309 30.5055H125.137V35.3201H121.913V23.5569H127.033C128.194 23.5569 129.171 23.8333 129.964 24.3858C130.883 25.0325 131.343 25.9495 131.343 27.1371ZM128.119 27.1548C128.119 26.4611 127.907 25.9319 127.481 25.5675C127.114 25.25 126.62 25.0913 125.999 25.0913H125.137V28.9712H125.982C126.591 28.9712 127.079 28.8477 127.447 28.6008C127.895 28.2951 128.119 27.8131 128.119 27.1548ZM143.514 32.516C143.042 33.5035 142.361 34.2619 141.471 34.7911C140.58 35.3201 139.577 35.5847 138.463 35.5847C136.796 35.5847 135.365 35.0203 134.17 33.8915C132.941 32.7277 132.326 31.2933 132.326 29.5883C132.326 27.7778 132.935 26.267 134.153 25.056C135.325 23.892 136.745 23.3101 138.411 23.3101C139.491 23.3101 140.451 23.5364 141.29 23.9889C142.129 24.4416 142.818 25.1325 143.358 26.0612L141.945 27.1017C141.543 26.3729 141.135 25.826 140.721 25.4617C140.192 25.0031 139.577 24.7738 138.876 24.7738C137.762 24.7738 136.94 25.3382 136.411 26.4669C136.02 27.3016 135.825 28.3598 135.825 29.6414C135.825 30.8171 136.066 31.8107 136.549 32.6218C137.124 33.5977 137.951 34.0856 139.031 34.0856C139.732 34.0856 140.376 33.8269 140.962 33.3097C141.422 32.8982 141.853 32.3278 142.255 31.599L143.514 32.516ZM154.684 35.3201H151.219L148.064 29.5178L151.547 23.5569H153.167L150.65 27.8778L154.684 35.3201ZM147.892 35.3201H144.669V23.5569H147.892V35.3201ZM165.355 35.3201H162.131V27.8248L157.356 35.3201H155.253V23.5569H158.477V30.9111L163.148 23.5569H165.355V35.3201ZM174.371 22.5869H170.113V21.1055H174.371V22.5869ZM176.991 35.3201H173.767V27.8248L168.992 35.3201H166.889V23.5569H170.113V30.9111L174.784 23.5569H176.991V35.3201Z" fill="url(#paint0_linear_195_349)"/>
<path fill-rule="evenodd" clip-rule="evenodd" d="M41.6681 39.9139C41.9943 39.0229 40.512 38.5285 41.3629 37.7103C41.8543 37.4833 42.069 37.9453 42.176 37.8773C42.233 37.8193 42.9558 37.219 43.1072 38.2052C43.114 38.8844 42.5738 39.5279 41.6681 39.9139ZM39.9902 41.7146C38.1628 41.0043 38.6568 37.914 39.1668 35.7998C34.5565 33.556 33.0584 33.0344 32.121 30.8167L39.3833 34.5532C39.6837 31.7854 43.0857 31.0024 45.6451 30.1001C46.8015 29.6926 47.3244 29.775 47.8439 28.6356C48.4401 27.3277 48.2089 27.1507 47.5629 26.3506C45.2645 23.5034 48.1446 25.1639 42.4702 21.7218L42.1569 18.1829C41.0274 18.1882 40.0315 20.9981 39.6895 21.9278C39.4015 22.711 38.3266 22.8555 37.7404 23.2395C33.012 26.3369 26.0957 38.3295 18.5326 38.256L17.2817 38.266C27.7311 34.361 32.742 24.3547 37.7013 22.0596C39.2348 21.3489 38.5514 21.3347 39.274 19.9017C39.755 18.6269 41.0169 17.1872 42.8538 16.952C43.441 21.2781 43.0417 20.7579 44.9831 21.9436C46.8992 23.0511 47.2665 24.0894 47.847 25.0958C51.1795 24.4114 54.4675 24.039 55.5167 22.5258C56.1844 21.7928 56.7331 21.0746 57.2958 20.1583C55.2969 19.5855 55.1977 18.559 55.9819 17.0342C53.5355 15.4395 50.5684 16.3117 48.9723 13.8945C47.4357 11.6523 46.342 10.6574 44.5223 10.2451C42.5713 9.88569 42.5368 9.019 42.441 8.43448L42.1359 4.9885C38.7563 5.35999 39.2522 9.72623 37.6907 10.954C35.6997 12.0688 34.5951 13.7596 33.0726 16.4385C28.3454 24.7587 18.1809 36.7101 9.05346 36.6213L7.22852 36.6359C12.8075 34.551 18.0872 31.3694 21.9417 27.9197C29.7729 20.9112 31.8133 13.1834 36.1885 10.178C38.0203 7.30712 37.7201 3.58544 43.3375 2.86621C43.7948 6.23569 43.8764 7.57213 44.1684 8.57265C46.6098 9.00553 48.6678 10.4639 50.3424 13.1022C51.2384 14.5131 51.4157 14.0349 53.2798 14.4824C56.782 15.3228 60.851 16.4922 58.7605 20.5601C57.5623 22.0633 56.2783 24.5558 54.651 25.0684C53.2973 25.4948 51.106 25.85 48.8823 26.4072C49.5165 27.0455 49.3641 28.5551 48.8616 29.4809C48.2529 30.6022 47.4624 30.5001 46.2755 31.1254C44.1932 31.8856 41.4238 32.6164 40.7414 34.4183L40.7728 34.4136C40.7306 34.6306 40.6866 34.8393 40.6422 35.0461C41.7001 35.6522 41.9855 36.3172 42.2713 37.7151L40.3679 36.4334C40.2897 36.9164 40.2267 37.4556 40.1952 38.112C39.87 44.8819 55.3077 33.8941 66.1619 42.6282C54.7087 36.3108 45.9893 44.0468 39.9902 41.7146Z" fill="#4C4C4C"/>
<path d="M17.6565 0C20.2801 0 22.7533 0.574405 24.9918 1.60468C24.9918 4.50429 24.9918 7.36052 24.9918 10.2555C27.8866 10.2555 30.6701 10.2555 33.5696 10.2555C33.7264 10.5329 33.9034 10.9084 34.0108 11.215C26.9798 16.841 27.2574 25.4065 10.2617 33.9846L10.2894 25.0008C7.38997 25.0008 4.49048 25.0008 1.59569 25.0008C0.565354 22.7626 0 20.2575 0 17.6338C0 15.0103 0.574467 12.4849 1.60474 10.2464C4.50424 10.2464 7.39903 10.2464 10.2985 10.2464C10.2985 7.35152 10.2985 4.49065 10.2985 1.59574C12.5369 0.56541 15.033 0 17.6565 0Z" fill="url(#paint1_linear_195_349)"/>
<path d="M17.6565 0C20.2801 0 22.7533 0.574405 24.9918 1.60468C24.9918 4.50429 24.9918 7.36052 24.9918 10.2555C27.8866 10.2555 30.6701 10.2555 33.5696 10.2555C33.7264 10.5329 33.9034 10.9084 34.0108 11.215C26.9798 16.841 27.2574 25.4065 10.2617 33.9846L10.2894 25.0008C7.38997 25.0008 4.49048 25.0008 1.59569 25.0008C0.565354 22.7626 0 20.2575 0 17.6338C0 15.0103 0.574467 12.4849 1.60474 10.2464C4.50424 10.2464 7.39903 10.2464 10.2985 10.2464C10.2985 7.35152 10.2985 4.49065 10.2985 1.59574C12.5369 0.56541 15.033 0 17.6565 0Z" fill="url(#paint2_linear_195_349)"/>
<defs>
<linearGradient id="paint0_linear_195_349" x1="61.9746" y1="21.1055" x2="61.9746" y2="35.5847" gradientUnits="userSpaceOnUse">
<stop stop-color="#82A81D"/>
<stop offset="1" stop-color="white"/>
</linearGradient>
<linearGradient id="paint1_linear_195_349" x1="2.0272e-06" y1="-2.23447e-07" x2="2.0272e-06" y2="33.9846" gradientUnits="userSpaceOnUse">
<stop stop-color="#82A81D"/>
<stop offset="1" stop-color="white"/>
</linearGradient>
<linearGradient id="paint2_linear_195_349" x1="2.0272e-06" y1="-2.23447e-07" x2="2.0272e-06" y2="33.9846" gradientUnits="userSpaceOnUse">
<stop stop-color="#82A81D"/>
<stop offset="1" stop-color="white"/>
</linearGradient>
</defs>
</svg>
