<svg width="399" height="397" viewBox="0 0 399 397" fill="none" xmlns="http://www.w3.org/2000/svg">
<mask id="mask0_2055_46" style="mask-type:alpha" maskUnits="userSpaceOnUse" x="0" y="0" width="399" height="397">
<rect width="399" height="397" rx="37" fill="#FAFAFA"/>
</mask>
<g mask="url(#mask0_2055_46)">
<mask id="path-2-inside-1_2055_46" fill="white">
<path d="M395.424 197.123C395.424 305.365 307.676 393.112 199.435 393.112C91.1927 393.112 3.44531 305.365 3.44531 197.123C3.44531 88.8811 91.1927 1.13379 199.435 1.13379C307.676 1.13379 395.424 88.8811 395.424 197.123ZM26.9603 197.123C26.9603 292.378 104.18 369.597 199.435 369.597C294.689 369.597 371.909 292.378 371.909 197.123C371.909 101.868 294.689 24.6488 199.435 24.6488C104.18 24.6488 26.9603 101.868 26.9603 197.123Z"/>
</mask>
<path d="M395.424 197.123C395.424 305.365 307.676 393.112 199.435 393.112C91.1927 393.112 3.44531 305.365 3.44531 197.123C3.44531 88.8811 91.1927 1.13379 199.435 1.13379C307.676 1.13379 395.424 88.8811 395.424 197.123ZM26.9603 197.123C26.9603 292.378 104.18 369.597 199.435 369.597C294.689 369.597 371.909 292.378 371.909 197.123C371.909 101.868 294.689 24.6488 199.435 24.6488C104.18 24.6488 26.9603 101.868 26.9603 197.123Z" stroke="url(#paint0_linear_2055_46)" stroke-opacity="0.77" stroke-width="35.6851" mask="url(#path-2-inside-1_2055_46)"/>
<mask id="path-3-inside-2_2055_46" fill="white">
<path d="M388.176 218.033C388.176 309.492 314.034 383.634 222.575 383.634C131.116 383.634 56.9736 309.492 56.9736 218.033C56.9736 126.574 131.116 52.4316 222.575 52.4316C314.034 52.4316 388.176 126.574 388.176 218.033ZM76.8426 218.033C76.8426 298.518 142.089 363.765 222.575 363.765C303.06 363.765 368.307 298.518 368.307 218.033C368.307 137.547 303.06 72.3006 222.575 72.3006C142.089 72.3006 76.8426 137.547 76.8426 218.033Z"/>
</mask>
<path d="M388.176 218.033C388.176 309.492 314.034 383.634 222.575 383.634C131.116 383.634 56.9736 309.492 56.9736 218.033C56.9736 126.574 131.116 52.4316 222.575 52.4316C314.034 52.4316 388.176 126.574 388.176 218.033ZM76.8426 218.033C76.8426 298.518 142.089 363.765 222.575 363.765C303.06 363.765 368.307 298.518 368.307 218.033C368.307 137.547 303.06 72.3006 222.575 72.3006C142.089 72.3006 76.8426 137.547 76.8426 218.033Z" stroke="url(#paint1_linear_2055_46)" stroke-opacity="0.77" stroke-width="35.6851" mask="url(#path-3-inside-2_2055_46)"/>
</g>
<defs>
<linearGradient id="paint0_linear_2055_46" x1="199.435" y1="1.13379" x2="199.435" y2="393.112" gradientUnits="userSpaceOnUse">
<stop stop-color="#82A81D"/>
<stop offset="1" stop-color="#C3FF00"/>
</linearGradient>
<linearGradient id="paint1_linear_2055_46" x1="222.575" y1="52.4316" x2="222.575" y2="383.634" gradientUnits="userSpaceOnUse">
<stop stop-color="#82A81D"/>
<stop offset="1" stop-color="#C3FF00"/>
</linearGradient>
</defs>
</svg>
