<svg width="100%" height="100%" viewBox="0 0 21 26" fill="none" xmlns="http://www.w3.org/2000/svg">
<path fill-rule="evenodd" clip-rule="evenodd" d="M9.41869 0.5354C8.38549 0.65138 7.18517 1.00101 6.21624 1.46831C4.6613 2.21814 3.22485 3.47786 2.24013 4.95513C0.705825 7.25691 0.147538 10.1382 0.719858 12.8012C1.25409 15.287 2.70116 17.7301 5.43804 20.767C6.52966 21.9783 9.56221 25.1071 9.7983 25.2656C10.1605 25.5089 10.6783 25.553 11.0509 25.3723C11.2353 25.2828 11.9657 24.5619 13.829 22.6302C17.1903 19.1452 18.82 16.9298 19.7484 14.5835C20.2816 13.2358 20.5027 12.0993 20.5 10.7188C20.4976 9.47813 20.3527 8.56623 19.9814 7.45439C19.4237 5.78422 18.6355 4.52408 17.3873 3.30729C15.7699 1.73051 13.7549 0.773139 11.5495 0.533674C11.1289 0.487973 9.83185 0.489023 9.41869 0.5354ZM9.93165 3.01049C8.39844 3.12035 6.82492 3.79714 5.61743 4.86609C3.67624 6.58448 2.70889 9.26741 3.10126 11.8444C3.46766 14.2508 4.95037 16.6337 8.24936 20.118C8.59134 20.4792 9.23893 21.1517 9.68848 21.6125L10.5059 22.4504L11.3053 21.6313C14.5504 18.3063 15.9055 16.6406 16.9318 14.7149C18.0725 12.5746 18.3009 10.3356 17.5952 8.21094C16.7393 5.6342 14.5679 3.67358 11.9765 3.13765C11.598 3.05938 10.6421 2.96074 10.413 2.97631C10.3717 2.97908 10.1551 2.99451 9.93165 3.01049ZM10.0035 6.76162C8.19428 7.0469 6.86492 8.48856 6.76695 10.2715C6.70748 11.3544 7.05812 12.2963 7.81546 13.0878C8.27612 13.5692 8.90258 13.9426 9.55002 14.1218C9.80704 14.1929 9.94456 14.2048 10.5068 14.2048C11.0691 14.2048 11.2066 14.1929 11.4636 14.1218C12.6707 13.7878 13.661 12.8617 14.0592 11.6944C14.5058 10.3855 14.1743 8.88281 13.2227 7.9024C12.5313 7.18993 11.6139 6.77802 10.6382 6.74189C10.4111 6.73348 10.1255 6.74237 10.0035 6.76162ZM10.1799 9.28883C9.77703 9.42053 9.47764 9.69519 9.34027 10.0592C9.23401 10.3407 9.2527 10.7521 9.38387 11.0198C9.83211 11.9346 11.1176 11.9652 11.5934 11.0724C11.8411 10.6078 11.7816 10.0596 11.4416 9.67343C11.1421 9.33311 10.5741 9.15998 10.1799 9.28883Z" fill="#82A81D" stroke="white"/>
</svg>
